<?xml version="1.0" encoding="utf-8"?>
<!-- Generator: Adobe Illustrator 27.7.0, SVG Export Plug-In . SVG Version: 6.00 Build 0)  -->
<svg version="1.1" id="Layer_1" xmlns="http://www.w3.org/2000/svg" xmlns:xlink="http://www.w3.org/1999/xlink" x="0px" y="0px"
	 viewBox="0 0 36.7 36.7" style="enable-background:new 0 0 36.7 36.7;" xml:space="preserve">
<style type="text/css">
	.st0{fill:#A67847;}
	.st1{fill:#FFFFFF;}
</style>
<g>
	<rect class="st0" width="36.7" height="36.7"/>
	<path class="st1" d="M31.4,30.9h-4.9c0-0.3-0.1-0.7-0.2-1c-0.1-0.3-0.3-0.7-0.5-1c-0.3-0.3-0.5-0.7-0.8-1.1
		c-0.3-0.4-0.7-0.9-1.1-1.4L17.7,19h-3.1c-0.1,1.6-0.3,3.1-1,4.5c-0.7,1.6-1.6,2.9-2.7,4s-2.4,2-3.9,2.7c-0.5,0.3-1.1,0.4-1.7,0.6
		v-0.6C5.6,30.1,5.8,30,6,29.9c1-0.5,2-1.3,2.9-2.2c0.8-1,1.4-2.2,1.9-3.8c0.4-1.6,0.7-3.1,0.7-4.9H8.5v-0.6h2.9v-0.1
		c0-2.1-0.3-3.9-0.7-5.4c-0.5-1.5-1.1-2.8-2-3.8C8,8.2,7,7.4,5.9,6.9c-0.2,0-0.3-0.1-0.4-0.2V6C6,6.2,6.6,6.3,7.1,6.6
		c1.6,0.6,2.9,1.6,4,2.7s2,2.5,2.6,4.1c0.6,1.6,1,3.3,1,5.1l0,0h3.6c2.2,0,3.8-0.5,5-1.6c1.2-1,1.8-2.6,1.8-4.6c0-1.1-0.2-2-0.6-2.8
		c-0.4-0.8-1-1.3-1.6-1.8c-0.6-0.5-1.3-0.8-2.2-1c-0.9-0.2-1.8-0.3-2.8-0.3h-3.4V5.8h4.1c1.2,0,2.3,0.1,3.5,0.3c1.1,0.2,2.1,0.6,3,1
		c0.9,0.5,1.6,1.1,2.1,1.9c0.5,0.8,0.8,1.7,0.8,2.9c0,1-0.2,1.9-0.6,2.7c-0.4,0.8-1,1.5-1.6,2c-0.7,0.6-1.5,1-2.3,1.4
		s-1.8,0.6-2.8,0.7l6,7.1c0.3,0.4,0.8,0.9,1.3,1.4c0.5,0.5,1,1,1.4,1.6c0.4,0.5,0.9,1,1.2,1.3C31,30.6,31.3,30.8,31.4,30.9
		L31.4,30.9L31.4,30.9z"/>
</g>
</svg>
