<?xml version="1.0" encoding="UTF-8"?>
<svg id="Layer_1" data-name="Layer 1" xmlns="http://www.w3.org/2000/svg" viewBox="0 0 36.71 36.71">
  <defs>
    <style>
      .cls-1 {
        fill: #fff;
      }

      .cls-2 {
        fill: #a67847;
      }
    </style>
  </defs>
  <rect class="cls-2" width="36.71" height="36.71"/>
  <path class="cls-1" d="m31.35,30.88h-4.92c0-.35-.09-.69-.17-.95-.09-.35-.26-.69-.52-.95s-.52-.69-.78-1.12c-.35-.43-.69-.86-1.12-1.38l-6.13-7.43h-3.11c-.09,1.55-.35,3.11-.95,4.49-.69,1.55-1.55,2.85-2.68,3.97-1.12,1.12-2.42,1.99-3.89,2.68-.52.26-1.12.43-1.73.6v-.6c.26-.09.43-.17.69-.26,1.04-.52,1.99-1.3,2.85-2.25.78-1.04,1.38-2.25,1.9-3.8.43-1.55.69-3.11.69-4.92h-2.94v-.6h2.94v-.09c0-2.07-.26-3.89-.69-5.36-.52-1.47-1.12-2.76-1.99-3.8-.78-.95-1.81-1.73-2.94-2.25-.17,0-.26-.09-.43-.17v-.69c.6.17,1.12.35,1.64.6,1.55.6,2.85,1.55,3.97,2.68,1.12,1.12,1.99,2.51,2.59,4.06.6,1.55.95,3.28.95,5.1h3.63c2.16,0,3.8-.52,5.01-1.64,1.21-1.04,1.81-2.59,1.81-4.58,0-1.12-.17-1.99-.6-2.76-.43-.78-.95-1.3-1.55-1.81s-1.3-.78-2.16-.95c-.86-.17-1.81-.26-2.76-.26h-3.37v-.6h4.15c1.21,0,2.33.09,3.46.35,1.12.17,2.07.6,3.02,1.04.86.52,1.55,1.12,2.07,1.9s.78,1.73.78,2.94c0,1.04-.17,1.9-.6,2.68s-.95,1.47-1.64,1.99c-.69.6-1.47,1.04-2.33,1.38-.86.35-1.81.6-2.76.69l6.05,7.08c.35.43.78.86,1.3,1.38s.95,1.04,1.38,1.55.86.95,1.21,1.3c.35.52.6.69.69.78h0Z"/>
</svg>